<svg width="175" height="30" viewBox="0 0 175 30" fill="none" xmlns="http://www.w3.org/2000/svg">
<path d="M9.15527e-05 6.66691C9.15527e-05 2.98501 2.97637 0.000244141 6.64781 0.000244141H23.2671C26.9385 0.000244141 29.9148 2.98501 29.9148 6.66691V23.3336C29.9148 27.0155 26.9385 30.0002 23.2671 30.0002H6.64781C2.97637 30.0002 9.15527e-05 27.0155 9.15527e-05 23.3336V6.66691Z" fill="#4489F7"/>
<path fill-rule="evenodd" clip-rule="evenodd" d="M9.85059 23.1429C14.2597 22.5714 16.9329 21.2328 17.8895 20.518C18.127 20.3982 18.3597 20.2617 18.586 20.1082C21.3833 18.2115 22.147 14.4431 20.2917 11.6914C18.4364 8.9396 14.6647 8.24647 11.8674 10.1432C11.7691 10.2099 11.6733 10.2789 11.5801 10.35C11.5095 10.3871 11.4411 10.4299 11.3752 10.4786C8.61335 12.5202 6.64048 15.6589 5.86785 17.2233C4.99898 13.3316 6.55139 9.10104 10.0899 6.70169C14.6869 3.58463 20.8951 4.73849 23.9563 9.2789C27.0175 13.8193 25.7725 20.0269 21.1756 23.144C17.6315 25.5471 13.1296 25.4117 9.85059 23.1429Z" fill="white"/>
<path fill-rule="evenodd" clip-rule="evenodd" d="M12.1964 12.1063C12.2613 12.0568 12.328 12.0088 12.3964 11.9624C14.343 10.6424 16.9739 11.1339 18.2726 13.0601C19.5713 14.9864 19.046 17.6179 17.0994 18.9379C16.9419 19.0447 16.7799 19.1396 16.6145 19.2229C15.9437 19.7245 14.0579 20.6656 10.9409 21.0509L13.5693 18.5805L6.31717 21.2762L11.7667 15.1627L8.13355 17.0954C8.58784 16.0926 10.0079 13.7089 12.0538 12.1958C12.0997 12.1619 12.1473 12.1321 12.1964 12.1063Z" fill="white"/>
<path d="M44.5314 26.3083C41.8368 26.3083 39.7423 25.5906 38.2476 24.155C36.7741 22.7195 36.0373 20.6928 36.0373 18.075C36.0373 16.3017 36.3846 14.7395 37.0793 13.3883C37.774 12.0161 38.7529 10.9606 40.0159 10.2217C41.279 9.46168 42.742 9.08168 44.4051 9.08168C45.184 9.08168 45.9944 9.17668 46.8365 9.36668C47.6996 9.53557 48.3627 9.73612 48.8258 9.96835L47.9732 13.7367C47.4891 13.5045 46.9523 13.325 46.3628 13.1983C45.7944 13.0506 45.2576 12.9767 44.7524 12.9767C43.4472 12.9767 42.3947 13.42 41.5948 14.3067C40.8159 15.1933 40.4264 16.365 40.4264 17.8217C40.4264 19.2995 40.8264 20.4395 41.6263 21.2417C42.4473 22.0439 43.6051 22.445 45.0998 22.445C46.0892 22.445 47.1522 22.255 48.289 21.875L48.9521 25.485C47.5838 26.0339 46.1102 26.3083 44.5314 26.3083Z" fill="white"/>
<path d="M59.4856 26.3083C57.8437 26.3083 56.3911 25.9495 55.1281 25.2317C53.886 24.5139 52.9177 23.5111 52.223 22.2233C51.5283 20.9145 51.181 19.405 51.181 17.695C51.181 15.985 51.5178 14.4861 52.1914 13.1983C52.8861 11.8895 53.8545 10.8761 55.0965 10.1583C56.3595 9.44057 57.8121 9.08168 59.4541 9.08168C61.096 9.08168 62.538 9.44057 63.7801 10.1583C65.0431 10.855 66.0115 11.8472 66.6851 13.135C67.3798 14.4228 67.7271 15.9111 67.7271 17.6C67.7271 19.31 67.3798 20.83 66.6851 22.16C66.0115 23.4689 65.0431 24.4928 63.7801 25.2317C62.538 25.9495 61.1066 26.3083 59.4856 26.3083ZM59.4541 22.445C60.5908 22.445 61.496 22.0122 62.1697 21.1467C62.8643 20.26 63.2117 19.0989 63.2117 17.6633C63.2117 16.2278 62.8643 15.0878 62.1697 14.2433C61.496 13.3778 60.5908 12.945 59.4541 12.945C58.3173 12.945 57.4016 13.3778 56.7069 14.2433C56.0333 15.0878 55.6964 16.2278 55.6964 17.6633C55.6964 19.0989 56.0333 20.26 56.7069 21.1467C57.4016 22.0122 58.3173 22.445 59.4541 22.445Z" fill="white"/>
<path d="M71.0274 9.52501H75.385V12.0583C76.6691 10.0739 78.4058 9.08168 80.5951 9.08168C81.8371 9.08168 82.8897 9.37723 83.7528 9.96835C84.6369 10.5383 85.279 11.3617 85.679 12.4383C86.4157 11.2772 87.2367 10.4328 88.1419 9.90501C89.0682 9.35612 90.1207 9.08168 91.2996 9.08168C93.0468 9.08168 94.4046 9.60946 95.373 10.665C96.3624 11.6995 96.8571 13.1456 96.8571 15.0033V25.8333H92.4048V15.7C92.4048 14.8556 92.1943 14.2011 91.7733 13.7367C91.3733 13.2511 90.826 13.0083 90.1313 13.0083C89.2682 13.0083 88.4682 13.3672 87.7314 14.085C86.9947 14.8028 86.4473 15.7211 86.0895 16.84V25.8333H81.6371V15.7C81.6371 14.8767 81.4266 14.2222 81.0056 13.7367C80.5846 13.2511 80.0267 13.0083 79.3321 13.0083C78.5532 13.0083 77.8164 13.3039 77.1217 13.895C76.4481 14.465 75.9007 15.2778 75.4797 16.3333V25.8333H71.0274V9.52501Z" fill="white"/>
<path d="M100.816 9.52501H105.173V12.0583C106.457 10.0739 108.194 9.08168 110.383 9.08168C111.625 9.08168 112.678 9.37723 113.541 9.96835C114.425 10.5383 115.067 11.3617 115.467 12.4383C116.204 11.2772 117.025 10.4328 117.93 9.90501C118.856 9.35612 119.909 9.08168 121.088 9.08168C122.835 9.08168 124.193 9.60946 125.161 10.665C126.151 11.6995 126.645 13.1456 126.645 15.0033V25.8333H122.193V15.7C122.193 14.8556 121.982 14.2011 121.561 13.7367C121.161 13.2511 120.614 13.0083 119.919 13.0083C119.056 13.0083 118.256 13.3672 117.52 14.085C116.783 14.8028 116.235 15.7211 115.878 16.84V25.8333H111.425V15.7C111.425 14.8767 111.215 14.2222 110.794 13.7367C110.373 13.2511 109.815 13.0083 109.12 13.0083C108.341 13.0083 107.604 13.3039 106.91 13.895C106.236 14.465 105.689 15.2778 105.268 16.3333V25.8333H100.816V9.52501Z" fill="white"/>
<path d="M138.431 26.3083C135.8 26.3083 133.726 25.5483 132.21 24.0283C130.716 22.5083 129.968 20.3972 129.968 17.695C129.968 15.9428 130.295 14.4228 130.947 13.135C131.6 11.8261 132.516 10.8233 133.694 10.1267C134.894 9.43001 136.294 9.08168 137.894 9.08168C140.252 9.08168 142.062 9.84168 143.325 11.3617C144.588 12.8817 145.22 15.0772 145.22 17.9483C145.22 18.4339 145.209 18.7928 145.188 19.025H134.452C134.663 20.1439 135.147 20.9989 135.905 21.59C136.663 22.16 137.684 22.445 138.968 22.445C139.747 22.445 140.557 22.35 141.399 22.16C142.241 21.9489 142.978 21.6745 143.61 21.3367L144.336 24.915C143.494 25.3583 142.557 25.6961 141.525 25.9283C140.515 26.1817 139.484 26.3083 138.431 26.3083ZM140.957 15.6683C140.894 14.7606 140.578 14.0428 140.01 13.515C139.441 12.9661 138.684 12.6917 137.736 12.6917C136.831 12.6917 136.084 12.9556 135.494 13.4833C134.926 14.0111 134.568 14.7395 134.421 15.6683H140.957Z" fill="white"/>
<path d="M154.519 26.3083C153.003 26.3083 151.824 25.9283 150.982 25.1683C150.161 24.3872 149.75 23.2895 149.75 21.875V13.3567H147.224V9.52501H149.75V6.04168C151.245 5.78835 152.719 5.59835 154.171 5.47168V9.52501H158.276V13.3567H154.171V21.0517C154.171 21.495 154.297 21.8328 154.55 22.065C154.824 22.2972 155.203 22.4133 155.687 22.4133C156.276 22.4133 156.95 22.2761 157.708 22.0017L158.687 25.3583C157.339 25.9917 155.95 26.3083 154.519 26.3083Z" fill="white"/>
<path d="M165.775 26.3083C164.091 26.3083 162.754 25.5906 161.765 24.155C160.775 22.7195 160.281 20.7667 160.281 18.2967C160.281 15.2989 161.039 13.0189 162.554 11.4567C164.07 9.87335 166.249 9.08168 169.091 9.08168C170.691 9.08168 172.564 9.33501 174.711 9.84168V25.8333H170.48L170.575 23.2367H170.448C169.901 24.2289 169.227 24.9889 168.428 25.5167C167.649 26.0445 166.764 26.3083 165.775 26.3083ZM166.722 22.4133C167.375 22.4133 168.017 22.065 168.649 21.3683C169.28 20.6717 169.87 19.7428 170.417 18.5817V13.2617C169.743 13.0717 169.07 12.9767 168.396 12.9767C167.133 12.9767 166.175 13.4095 165.522 14.275C164.891 15.1406 164.575 16.4178 164.575 18.1067C164.575 19.4367 164.765 20.4922 165.144 21.2733C165.522 22.0333 166.049 22.4133 166.722 22.4133Z" fill="white"/>
</svg>
